<mxfile host="app.diagrams.net" modified="2024-01-22T09:46:31.723Z" agent="Mozilla/5.0 (Windows NT 10.0; Win64; x64) AppleWebKit/537.36 (KHTML, like Gecko) Chrome/118.0.0.0 YaBrowser/23.11.0.0 Safari/537.36" etag="Dj4ebGUVnmw9Ul5lyADD" version="22.1.21" type="device">
  <diagram name="Страница — 1" id="2QwRDh66gr1yH4RFW0y8">
    <mxGraphModel dx="756" dy="429" grid="1" gridSize="10" guides="1" tooltips="1" connect="1" arrows="1" fold="1" page="1" pageScale="1" pageWidth="827" pageHeight="1169" math="0" shadow="0">
      <root>
        <mxCell id="0" />
        <mxCell id="1" parent="0" />
        <mxCell id="yxKXf85pXLixFxLYZLRz-14" style="edgeStyle=orthogonalEdgeStyle;rounded=0;orthogonalLoop=1;jettySize=auto;html=1;entryX=0;entryY=0.5;entryDx=0;entryDy=0;" edge="1" parent="1" source="yxKXf85pXLixFxLYZLRz-1" target="yxKXf85pXLixFxLYZLRz-8">
          <mxGeometry relative="1" as="geometry" />
        </mxCell>
        <mxCell id="yxKXf85pXLixFxLYZLRz-1" value="&lt;font style=&quot;font-size: 20px;&quot;&gt;БД&lt;/font&gt;" style="rounded=1;whiteSpace=wrap;html=1;" vertex="1" parent="1">
          <mxGeometry x="40" y="120" width="120" height="60" as="geometry" />
        </mxCell>
        <mxCell id="yxKXf85pXLixFxLYZLRz-7" style="edgeStyle=orthogonalEdgeStyle;rounded=0;orthogonalLoop=1;jettySize=auto;html=1;entryX=0.5;entryY=0;entryDx=0;entryDy=0;" edge="1" parent="1" source="yxKXf85pXLixFxLYZLRz-3" target="yxKXf85pXLixFxLYZLRz-5">
          <mxGeometry relative="1" as="geometry" />
        </mxCell>
        <mxCell id="yxKXf85pXLixFxLYZLRz-3" value="СЧИТЫВАНИЕ РАСПИАНИЕ" style="rounded=1;whiteSpace=wrap;html=1;" vertex="1" parent="1">
          <mxGeometry x="480" y="10" width="120" height="60" as="geometry" />
        </mxCell>
        <mxCell id="yxKXf85pXLixFxLYZLRz-5" value="ЗАПИСЬ В БД" style="rounded=1;whiteSpace=wrap;html=1;" vertex="1" parent="1">
          <mxGeometry x="480" y="120" width="120" height="60" as="geometry" />
        </mxCell>
        <mxCell id="yxKXf85pXLixFxLYZLRz-11" style="edgeStyle=orthogonalEdgeStyle;rounded=0;orthogonalLoop=1;jettySize=auto;html=1;" edge="1" parent="1" source="yxKXf85pXLixFxLYZLRz-8">
          <mxGeometry relative="1" as="geometry">
            <mxPoint x="160" y="140" as="targetPoint" />
            <Array as="points">
              <mxPoint x="160" y="140" />
            </Array>
          </mxGeometry>
        </mxCell>
        <mxCell id="yxKXf85pXLixFxLYZLRz-17" style="edgeStyle=orthogonalEdgeStyle;rounded=0;orthogonalLoop=1;jettySize=auto;html=1;entryX=0.5;entryY=0;entryDx=0;entryDy=0;" edge="1" parent="1" source="yxKXf85pXLixFxLYZLRz-8" target="yxKXf85pXLixFxLYZLRz-15">
          <mxGeometry relative="1" as="geometry" />
        </mxCell>
        <mxCell id="yxKXf85pXLixFxLYZLRz-8" value="&lt;font style=&quot;font-size: 20px;&quot;&gt;ЗАПРОС&lt;/font&gt;" style="rounded=1;whiteSpace=wrap;html=1;" vertex="1" parent="1">
          <mxGeometry x="210" y="120" width="120" height="60" as="geometry" />
        </mxCell>
        <mxCell id="yxKXf85pXLixFxLYZLRz-10" style="edgeStyle=orthogonalEdgeStyle;rounded=0;orthogonalLoop=1;jettySize=auto;html=1;entryX=0.5;entryY=0;entryDx=0;entryDy=0;" edge="1" parent="1" source="yxKXf85pXLixFxLYZLRz-9" target="yxKXf85pXLixFxLYZLRz-8">
          <mxGeometry relative="1" as="geometry" />
        </mxCell>
        <mxCell id="yxKXf85pXLixFxLYZLRz-9" value="&lt;font style=&quot;font-size: 18px;&quot;&gt;ОБРАЩЕНИЕ К БОТУ&lt;/font&gt;" style="rounded=1;whiteSpace=wrap;html=1;" vertex="1" parent="1">
          <mxGeometry x="210" y="10" width="120" height="60" as="geometry" />
        </mxCell>
        <mxCell id="yxKXf85pXLixFxLYZLRz-19" style="edgeStyle=orthogonalEdgeStyle;rounded=0;orthogonalLoop=1;jettySize=auto;html=1;entryX=0.5;entryY=0;entryDx=0;entryDy=0;" edge="1" parent="1" source="yxKXf85pXLixFxLYZLRz-15" target="yxKXf85pXLixFxLYZLRz-18">
          <mxGeometry relative="1" as="geometry" />
        </mxCell>
        <mxCell id="yxKXf85pXLixFxLYZLRz-15" value="&lt;font style=&quot;font-size: 15px;&quot;&gt;ВЫЧИСЛЕНИЕ&amp;nbsp;&lt;/font&gt;" style="rounded=1;whiteSpace=wrap;html=1;" vertex="1" parent="1">
          <mxGeometry x="210" y="250" width="120" height="60" as="geometry" />
        </mxCell>
        <mxCell id="yxKXf85pXLixFxLYZLRz-18" value="ВЫВОД РЕЗУЛЬТАТА" style="rounded=1;whiteSpace=wrap;html=1;" vertex="1" parent="1">
          <mxGeometry x="210" y="380" width="120" height="60" as="geometry" />
        </mxCell>
      </root>
    </mxGraphModel>
  </diagram>
</mxfile>
